<?xml version="1.0" encoding="UTF-8" standalone="no"?>
<!-- Created with Inkscape (http://www.inkscape.org/) -->

<svg
   xmlns:dc="http://purl.org/dc/elements/1.1/"
   xmlns:cc="http://creativecommons.org/ns#"
   xmlns:rdf="http://www.w3.org/1999/02/22-rdf-syntax-ns#"
   xmlns:svg="http://www.w3.org/2000/svg"
   xmlns="http://www.w3.org/2000/svg"
   xmlns:sodipodi="http://sodipodi.sourceforge.net/DTD/sodipodi-0.dtd"
   xmlns:inkscape="http://www.inkscape.org/namespaces/inkscape"
   width="297.05856mm"
   height="297.05856mm"
   viewBox="0 0 297.05857 297.05856"
   version="1.1"
   id="svg4713"
   inkscape:version="0.92.3 (2405546, 2018-03-11)"
   sodipodi:docname="ring.svg">
  <defs
     id="defs4707">
    <circle
       style="opacity:1;fill:none;fill-opacity:1;fill-rule:evenodd;stroke:#e20000;stroke-width:1.52690196;stroke-linecap:round;stroke-linejoin:miter;stroke-miterlimit:4;stroke-dasharray:none;stroke-opacity:1;paint-order:normal"
       id="path7180-6"
       cx="199.9494"
       cy="301.53571"
       r="134.83452" />
    <circle
       style="opacity:1;fill:none;fill-opacity:1;fill-rule:evenodd;stroke:#e20000;stroke-width:1.52690196;stroke-linecap:round;stroke-linejoin:miter;stroke-miterlimit:4;stroke-dasharray:none;stroke-opacity:1;paint-order:normal"
       id="path7180-5"
       cx="199.9494"
       cy="301.53571"
       r="134.83452" />
  </defs>
  <sodipodi:namedview
     id="base"
     pagecolor="#ffffff"
     bordercolor="#666666"
     borderopacity="1.0"
     inkscape:pageopacity="0.0"
     inkscape:pageshadow="2"
     inkscape:zoom="0.49497475"
     inkscape:cx="125.69633"
     inkscape:cy="572.73246"
     inkscape:document-units="mm"
     inkscape:current-layer="layer1"
     showgrid="false"
     fit-margin-top="0"
     fit-margin-left="0"
     fit-margin-right="0"
     fit-margin-bottom="0"
     inkscape:window-width="1920"
     inkscape:window-height="1017"
     inkscape:window-x="1912"
     inkscape:window-y="356"
     inkscape:window-maximized="1" />
  <metadata
     id="metadata4710">
    <rdf:RDF>
      <cc:Work
         rdf:about="">
        <dc:format>image/svg+xml</dc:format>
        <dc:type
           rdf:resource="http://purl.org/dc/dcmitype/StillImage" />
        <dc:title />
      </cc:Work>
    </rdf:RDF>
  </metadata>
  <g
     inkscape:label="Layer 1"
     inkscape:groupmode="layer"
     id="layer1"
     transform="translate(49.104997,-14.900921)">
    <text
       xml:space="preserve"
       style="font-style:normal;font-variant:normal;font-weight:normal;font-stretch:normal;font-size:10.58333302px;line-height:1.25;font-family:Alef;-inkscape-font-specification:Alef;letter-spacing:0px;word-spacing:0px;fill:#000000;fill-opacity:1;stroke:none;stroke-width:0.26458332"
       x="25.513393"
       y="40.16518"
       id="text5264"><tspan
         sodipodi:role="line"
         id="tspan5262"
         x="25.513393"
         y="49.952698"
         style="font-style:normal;font-variant:normal;font-weight:normal;font-stretch:normal;font-family:Alef;-inkscape-font-specification:Alef;stroke-width:0.26458332" /></text>
    <circle
       style="opacity:1;fill:none;fill-opacity:1;fill-rule:evenodd;stroke:#e20000;stroke-width:1.52690196;stroke-linecap:round;stroke-linejoin:miter;stroke-miterlimit:4;stroke-dasharray:none;stroke-opacity:1;paint-order:normal"
       id="path7180-4"
       cx="199.9494"
       cy="301.53571"
       r="0" />
    <g
       id="g7911"
       transform="rotate(-92.804833,294.95379,401.59413)">
      <g
         id="g932">
        <path
           d="m 680.87236,222.70471 0.012,-0.40339 q 0.0316,-1.06469 -0.32919,-1.61815 -0.35441,-0.54666 -1.09507,-0.56866 -0.66791,-0.0199 -1.05022,0.37254 -0.38231,0.39239 -0.40353,1.10659 -0.0299,1.00517 0.64741,1.60113 0.68388,0.59616 1.91369,0.63931 l 0.27113,0.008 z m 0.43244,2.37576 -4.22569,-0.12555 0.0364,-1.2234 1.09776,0.0326 q -0.64971,-0.40981 -0.94945,-1.01441 -0.29332,-0.59779 -0.26817,-1.44425 0.0336,-1.13082 0.68848,-1.78648 0.6615,-0.65546 1.7328,-0.62364 1.23662,0.0368 1.85352,0.88243 0.6167,0.85229 0.56896,2.45924 l -0.0485,1.6334 0.19178,0.006 q 0.88633,0.0197 1.29627,-0.41157 0.41656,-0.43108 0.44544,-1.40319 0.0185,-0.62161 -0.14122,-1.26176 -0.15969,-0.64015 -0.48568,-1.25215 l 1.21678,0.0362 q 0.23787,0.68219 0.34524,1.30092 0.11379,0.62555 0.0965,1.20749 -0.0273,0.91921 -0.31769,1.55922 -0.29059,0.64663 -0.84483,1.03391 -0.33812,0.24147 -0.83062,0.33274 -0.48589,0.0915 -1.458,0.0626 z"
           style="font-style:normal;font-variant:normal;font-weight:normal;font-stretch:normal;font-size:medium;line-height:1.25;font-family:monospace;-inkscape-font-specification:monospace;letter-spacing:0px;word-spacing:0px;fill:#000000;fill-opacity:1;stroke:none;stroke-width:0.3387334"
           id="path824"
           inkscape:connector-curvature="0" />
        <path
           d="m 685.86111,240.36046 -13.39741,-2.02331 0.16992,-1.12517 13.39742,2.0233 z"
           style="font-style:normal;font-variant:normal;font-weight:normal;font-stretch:normal;font-size:medium;line-height:1.25;font-family:monospace;-inkscape-font-specification:monospace;letter-spacing:0px;word-spacing:0px;fill:#000000;fill-opacity:1;stroke:none;stroke-width:0.3387334"
           id="path826"
           inkscape:connector-curvature="0" />
        <path
           d="m 675.32981,257.09972 q 1.36396,0.37961 2.17931,0.13955 0.81535,-0.24005 1.05128,-1.08775 0.2377,-0.85406 -0.341,-1.48897 -0.57233,-0.63314 -1.92992,-1.01097 -1.35121,-0.37606 -2.17471,-0.13141 -0.8235,0.24465 -1.0612,1.09872 -0.23592,0.8477 0.33818,1.47446 0.5741,0.62676 1.93806,1.00637 z m 3.62385,-2.70666 q 0.44459,0.4259 0.58844,0.99472 0.14208,0.57519 -0.0389,1.2253 -0.35833,1.28748 -1.55839,1.7501 -1.19368,0.46439 -2.93368,-0.0199 -1.7655,-0.49136 -2.56499,-1.51735 -0.7949,-1.01784 -0.4348,-2.31169 0.17739,-0.63737 0.58804,-1.05186 0.41526,-0.40635 1.02587,-0.5523 l -0.89868,-0.25012 0.32639,-1.17275 9.91739,2.76015 -0.3264,1.17275 z"
           style="font-style:normal;font-variant:normal;font-weight:normal;font-stretch:normal;font-size:medium;line-height:1.25;font-family:monospace;-inkscape-font-specification:monospace;letter-spacing:0px;word-spacing:0px;fill:#000000;fill-opacity:1;stroke:none;stroke-width:0.3387334"
           id="path828"
           inkscape:connector-curvature="0" />
        <path
           d="m 676.33257,274.07625 -12.51507,-5.19206 0.43605,-1.05107 12.51507,5.19206 z"
           style="font-style:normal;font-variant:normal;font-weight:normal;font-stretch:normal;font-size:medium;line-height:1.25;font-family:monospace;-inkscape-font-specification:monospace;letter-spacing:0px;word-spacing:0px;fill:#000000;fill-opacity:1;stroke:none;stroke-width:0.3387334"
           id="path830"
           inkscape:connector-curvature="0" />
        <path
           d="m 658.72108,286.97279 q -0.007,-0.56619 0.12968,-1.08953 0.12731,-0.52084 0.39435,-0.99307 0.8467,-1.49731 2.2238,-1.83585 1.37384,-0.33278 2.9633,0.56603 1.58945,0.8988 2.01239,2.24762 0.41967,1.35458 -0.42703,2.85189 -0.26378,0.46647 -0.63547,0.84152 -0.37169,0.37505 -0.87909,0.68096 l -1.11147,-0.62852 q 0.61206,-0.20872 1.02005,-0.54044 0.40474,-0.32596 0.70759,-0.86154 0.56339,-0.99629 0.22125,-1.8966 -0.34214,-0.90031 -1.53999,-1.57767 -1.1921,-0.6741 -2.14571,-0.50651 -0.95111,0.1766 -1.51123,1.16713 -0.31263,0.55286 -0.39312,1.08497 -0.0747,0.53538 0.0707,1.11161 z"
           style="font-style:normal;font-variant:normal;font-weight:normal;font-stretch:normal;font-size:medium;line-height:1.25;font-family:monospace;-inkscape-font-specification:monospace;letter-spacing:0px;word-spacing:0px;fill:#000000;fill-opacity:1;stroke:none;stroke-width:0.3387334"
           id="path832"
           inkscape:connector-curvature="0" />
        <path
           d="m 658.97615,304.49858 -10.90485,-8.04169 0.67538,-0.91584 10.90485,8.04169 z"
           style="font-style:normal;font-variant:normal;font-weight:normal;font-stretch:normal;font-size:medium;line-height:1.25;font-family:monospace;-inkscape-font-specification:monospace;letter-spacing:0px;word-spacing:0px;fill:#000000;fill-opacity:1;stroke:none;stroke-width:0.3387334"
           id="path834"
           inkscape:connector-curvature="0" />
        <path
           d="m 644.14663,316.00036 2.78787,2.62703 -0.83484,0.88595 -7.4921,-7.05986 0.83485,-0.88595 0.67891,0.63974 q -0.19094,-0.59807 -0.0534,-1.16846 0.13778,-0.56104 0.5915,-1.04254 0.92105,-0.97743 2.20785,-0.82845 1.28708,0.15834 2.62082,1.41514 1.31449,1.23865 1.52996,2.50527 0.22028,1.27115 -0.69623,2.24377 -0.45825,0.48631 -1.01947,0.65743 -0.55641,0.17565 -1.15569,0.0109 z m 0.44196,-4.50144 q -1.0304,-0.97096 -1.86376,-1.1381 -0.83336,-0.16713 -1.43681,0.47326 -0.60344,0.64039 -0.38686,1.47171 0.21204,0.83614 1.23281,1.79802 1.02559,0.96642 1.86803,1.12393 0.84271,0.16686 1.44615,-0.47353 0.60345,-0.6404 0.38715,-1.46237 -0.21631,-0.82197 -1.24671,-1.79292 z"
           style="font-style:normal;font-variant:normal;font-weight:normal;font-stretch:normal;font-size:medium;line-height:1.25;font-family:monospace;-inkscape-font-specification:monospace;letter-spacing:0px;word-spacing:0px;fill:#000000;fill-opacity:1;stroke:none;stroke-width:0.3387334"
           id="path836"
           inkscape:connector-curvature="0" />
        <path
           d="m 634.8684,329.88427 -8.67585,-10.40741 0.87406,-0.72863 8.67585,10.40741 z"
           style="font-style:normal;font-variant:normal;font-weight:normal;font-stretch:normal;font-size:medium;line-height:1.25;font-family:monospace;-inkscape-font-specification:monospace;letter-spacing:0px;word-spacing:0px;fill:#000000;fill-opacity:1;stroke:none;stroke-width:0.3387334"
           id="path838"
           inkscape:connector-curvature="0" />
        <path
           d="m 614.98042,336.37583 -0.32352,-0.49987 4.42662,-2.86498 -0.0216,-0.0333 q -0.65783,-1.0164 -1.54494,-1.23032 -0.89267,-0.21032 -1.85908,0.41516 -0.48876,0.31634 -0.9213,0.81694 -0.43254,0.50061 -0.83304,1.20902 l -0.65783,-1.01641 q 0.4286,-0.61627 0.89742,-1.08518 0.45966,-0.47088 0.96508,-0.798 1.44963,-0.93822 2.82685,-0.6002 1.38082,0.34358 2.36937,1.87095 0.96338,1.4885 0.73874,2.8948 -0.22464,1.40629 -1.55762,2.26902 -1.18858,0.76927 -2.39297,0.40607 -1.20994,-0.3596 -2.11221,-1.75368 z m 1.21607,-0.3615 q 0.60456,0.88538 1.31196,1.08951 0.70545,0.21328 1.46081,-0.2756 0.73869,-0.47809 0.90001,-1.276 0.16132,-0.7979 -0.31059,-1.72186 z"
           style="font-style:normal;font-variant:normal;font-weight:normal;font-stretch:normal;font-size:medium;line-height:1.25;font-family:monospace;-inkscape-font-specification:monospace;letter-spacing:0px;word-spacing:0px;fill:#000000;fill-opacity:1;stroke:none;stroke-width:0.3387334"
           id="path840"
           inkscape:connector-curvature="0" />
        <path
           d="m 605.39294,348.7934 -5.9341,-12.18076 1.023,-0.49837 5.93409,12.18076 z"
           style="font-style:normal;font-variant:normal;font-weight:normal;font-stretch:normal;font-size:medium;line-height:1.25;font-family:monospace;-inkscape-font-specification:monospace;letter-spacing:0px;word-spacing:0px;fill:#000000;fill-opacity:1;stroke:none;stroke-width:0.3387334"
           id="path842"
           inkscape:connector-curvature="0" />
        <path
           d="m 586.87329,356.16459 -0.32961,-0.95707 1.30736,-0.45024 q 0.61928,-0.21328 0.77491,-0.55376 0.15153,-0.33208 -0.0704,-0.97638 l -0.21328,-0.61927 -2.4083,0.8294 -0.30806,-0.89451 2.4083,-0.8294 -2.10475,-6.11145 1.15098,-0.39639 2.10474,6.11145 1.87034,-0.64414 0.30807,0.89451 -1.87034,0.64414 0.16803,0.48791 q 0.39639,1.15098 0.0584,1.87615 -0.34428,0.72733 -1.46398,1.11295 z"
           style="font-style:normal;font-variant:normal;font-weight:normal;font-stretch:normal;font-size:medium;line-height:1.25;font-family:monospace;-inkscape-font-specification:monospace;letter-spacing:0px;word-spacing:0px;fill:#000000;fill-opacity:1;stroke:none;stroke-width:0.3387334"
           id="path844"
           inkscape:connector-curvature="0" />
        <path
           d="m 572.22003,360.07084 -2.82287,-13.25202 1.11296,-0.23708 2.82287,13.25202 z"
           style="font-style:normal;font-variant:normal;font-weight:normal;font-stretch:normal;font-size:medium;line-height:1.25;font-family:monospace;-inkscape-font-specification:monospace;letter-spacing:0px;word-spacing:0px;fill:#000000;fill-opacity:1;stroke:none;stroke-width:0.3387334"
           id="path846"
           inkscape:connector-curvature="0" />
        <path
           d="m 553.2481,356.13958 q 0.12152,1.36408 0.63244,2.02927 0.50492,0.67237 1.355,0.59664 0.88963,-0.0793 1.2941,-0.83263 0.40506,-0.74679 0.28354,-2.11088 -0.12152,-1.36408 -0.65338,-2.04069 -0.53787,-0.66943 -1.43408,-0.58959 -0.8369,0.0746 -1.21443,0.83217 -0.38412,0.75821 -0.26319,2.11571 z m -1.50428,-3.16711 q -0.14794,-1.66063 0.55993,-2.58716 0.70787,-0.92653 2.23011,-1.06214 0.50083,-0.0446 1.056,-10e-4 0.55517,0.0435 1.11797,0.17273 l 0.10684,1.19934 q -0.6728,-0.2456 -1.2129,-0.34361 -0.5401,-0.098 -0.98161,-0.0587 -0.98188,0.0875 -1.38244,0.66116 -0.40055,0.57369 -0.29723,1.7335 l 0.005,0.0527 0.0734,0.82373 q 0.23477,-0.64527 0.70859,-0.99302 0.47382,-0.34774 1.1921,-0.41173 1.2916,-0.11506 2.15477,0.85085 0.86318,0.96591 1.01757,2.69902 0.15498,1.73971 -0.52386,2.84299 -0.67884,1.10328 -1.97043,1.21834 -0.7117,0.0634 -1.23118,-0.17593 -0.51948,-0.23933 -0.88203,-0.80482 l 0.0851,0.95552 -1.21252,0.10802 z"
           style="font-style:normal;font-variant:normal;font-weight:normal;font-stretch:normal;font-size:medium;line-height:1.25;font-family:monospace;-inkscape-font-specification:monospace;letter-spacing:0px;word-spacing:0px;fill:#000000;fill-opacity:1;stroke:none;stroke-width:0.3387334"
           id="path848"
           inkscape:connector-curvature="0" />
        <path
           d="m 537.34038,363.05357 0.41164,-13.54308 1.13741,0.0346 -0.41164,13.54308 z"
           style="font-style:normal;font-variant:normal;font-weight:normal;font-stretch:normal;font-size:medium;line-height:1.25;font-family:monospace;-inkscape-font-specification:monospace;letter-spacing:0px;word-spacing:0px;fill:#000000;fill-opacity:1;stroke:none;stroke-width:0.3387334"
           id="path850"
           inkscape:connector-curvature="0" />
        <path
           d="m 518.46416,355.36044 0.68878,-4.53946 1.21009,0.18361 -0.68878,4.53946 q -0.14987,0.9877 0.12634,1.50471 0.27621,0.51702 1.01534,0.62917 0.84379,0.12803 1.39297,-0.40427 0.54165,-0.52675 0.71137,-1.64527 l 0.62824,-4.14046 1.20355,0.18262 -1.54431,10.17782 -1.20355,-0.18262 0.59946,-3.95077 q -0.41579,0.5793 -1.01386,0.81644 -0.59907,0.24369 -1.35129,0.12955 -1.11852,-0.16971 -1.55581,-0.99222 -0.44483,-0.81695 -0.21854,-2.30831 z"
           style="font-style:normal;font-variant:normal;font-weight:normal;font-stretch:normal;font-size:medium;line-height:1.25;font-family:monospace;-inkscape-font-specification:monospace;letter-spacing:0px;word-spacing:0px;fill:#000000;fill-opacity:1;stroke:none;stroke-width:0.3387334"
           id="path852"
           inkscape:connector-curvature="0" />
        <path
           d="m 502.73796,357.65582 3.64202,-13.05068 1.09606,0.30588 -3.64203,13.05067 z"
           style="font-style:normal;font-variant:normal;font-weight:normal;font-stretch:normal;font-size:medium;line-height:1.25;font-family:monospace;-inkscape-font-specification:monospace;letter-spacing:0px;word-spacing:0px;fill:#000000;fill-opacity:1;stroke:none;stroke-width:0.3387334"
           id="path854"
           inkscape:connector-curvature="0" />
        <path
           d="m 490.02804,350.26602 -2.87739,-1.19609 2.48105,-5.96859 -2.22983,-0.9269 0.36314,-0.8736 5.58372,2.32106 -0.36314,0.8736 -2.22982,-0.9269 -2.1179,5.09499 1.75331,0.72882 z m -2.86051,1.93474 -1.12408,-0.46726 0.59169,-1.42342 1.12408,0.46726 z"
           style="font-style:normal;font-variant:normal;font-weight:normal;font-stretch:normal;font-size:medium;line-height:1.25;font-family:monospace;-inkscape-font-specification:monospace;letter-spacing:0px;word-spacing:0px;fill:#000000;fill-opacity:1;stroke:none;stroke-width:0.3387334"
           id="path856"
           inkscape:connector-curvature="0" />
        <path
           d="m 470.43879,344.08304 6.67758,-11.78959 0.99014,0.56081 -6.67758,11.78959 z"
           style="font-style:normal;font-variant:normal;font-weight:normal;font-stretch:normal;font-size:medium;line-height:1.25;font-family:monospace;-inkscape-font-specification:monospace;letter-spacing:0px;word-spacing:0px;fill:#000000;fill-opacity:1;stroke:none;stroke-width:0.3387334"
           id="path858"
           inkscape:connector-curvature="0" />
        <path
           d="m 462.53545,326.44009 -3.91849,5.30595 1.68705,1.2459 -0.56203,0.76104 -2.66628,-1.96908 4.48052,-6.06698 q 0.76641,-1.03778 1.65806,-1.24285 0.89026,-0.21433 1.76838,0.43417 l 1.35176,0.99829 -0.61312,0.83022 -1.24533,-0.91969 q -0.47897,-0.35372 -0.96607,-0.19531 -0.48316,0.1531 -0.97445,0.81834 z m -6.19413,8.38734 -0.97923,-0.72317 0.91576,-1.24001 0.97923,0.72318 z"
           style="font-style:normal;font-variant:normal;font-weight:normal;font-stretch:normal;font-size:medium;line-height:1.25;font-family:monospace;-inkscape-font-specification:monospace;letter-spacing:0px;word-spacing:0px;fill:#000000;fill-opacity:1;stroke:none;stroke-width:0.3387334"
           id="path860"
           inkscape:connector-curvature="0" />
        <path
           d="m 442.35241,323.17468 9.29894,-9.85465 0.82764,0.78097 -9.29895,9.85464 z"
           style="font-style:normal;font-variant:normal;font-weight:normal;font-stretch:normal;font-size:medium;line-height:1.25;font-family:monospace;-inkscape-font-specification:monospace;letter-spacing:0px;word-spacing:0px;fill:#000000;fill-opacity:1;stroke:none;stroke-width:0.3387334"
           id="path862"
           inkscape:connector-curvature="0" />
        <path
           d="m 432.4123,312.68052 -0.80422,-0.96609 4.58128,-3.8137 -4.40879,-0.48767 -0.94813,-1.13896 4.01237,0.45612 1.39039,-5.54764 0.95237,1.14405 -1.18658,4.55158 1.23581,0.15057 2.28301,-1.9005 0.80423,0.96609 z"
           style="font-style:normal;font-variant:normal;font-weight:normal;font-stretch:normal;font-size:medium;line-height:1.25;font-family:monospace;-inkscape-font-specification:monospace;letter-spacing:0px;word-spacing:0px;fill:#000000;fill-opacity:1;stroke:none;stroke-width:0.3387334"
           id="path864"
           inkscape:connector-curvature="0" />
        <path
           d="m 420.05972,296.17853 11.3799,-7.35407 0.61762,0.95573 -11.3799,7.35407 z"
           style="font-style:normal;font-variant:normal;font-weight:normal;font-stretch:normal;font-size:medium;line-height:1.25;font-family:monospace;-inkscape-font-specification:monospace;letter-spacing:0px;word-spacing:0px;fill:#000000;fill-opacity:1;stroke:none;stroke-width:0.3387334"
           id="path866"
           inkscape:connector-curvature="0" />
        <path
           d="m 418.58326,277.88198 q 0.73776,-0.35878 0.98239,-0.8088 0.24173,-0.45596 -0.0158,-0.98548 l -0.62207,-1.27918 0.92814,-0.45136 0.67416,1.38627 q 0.4774,0.98169 0.11003,1.8298 -0.37026,0.84217 -1.52449,1.40348 l -6.0508,2.94255 0.85354,1.75515 -0.85675,0.41665 -1.38592,-2.84989 z"
           style="font-style:normal;font-variant:normal;font-weight:normal;font-stretch:normal;font-size:medium;line-height:1.25;font-family:monospace;-inkscape-font-specification:monospace;letter-spacing:0px;word-spacing:0px;fill:#000000;fill-opacity:1;stroke:none;stroke-width:0.3387334"
           id="path868"
           inkscape:connector-curvature="0" />
        <path
           d="m 404.86688,264.61382 12.81397,-4.40303 0.36979,1.07617 -12.81397,4.40303 z"
           style="font-style:normal;font-variant:normal;font-weight:normal;font-stretch:normal;font-size:medium;line-height:1.25;font-family:monospace;-inkscape-font-specification:monospace;letter-spacing:0px;word-spacing:0px;fill:#000000;fill-opacity:1;stroke:none;stroke-width:0.3387334"
           id="path870"
           inkscape:connector-curvature="0" />
        <path
           d="m 403.90447,247.08005 q -0.51267,-0.12112 -0.80415,-0.41093 -0.29932,-0.29492 -0.40098,-0.77382 -0.18547,-0.87368 0.41849,-1.37387 0.59612,-0.50529 2.46644,-0.90233 l 4.20011,-0.89163 0.2308,1.08725 -4.14834,0.88063 q -1.53378,0.3256 -1.86557,0.57864 -0.33964,0.24795 -0.24347,0.70096 0.1099,0.51774 0.55236,0.62671 0.43462,0.10387 1.91663,-0.21074 l 4.14834,-0.88063 0.2308,1.08724 -4.14834,0.88063 q -1.5532,0.32973 -1.87577,0.59434 -0.32395,0.25814 -0.22228,0.73704 0.10029,0.47244 0.54137,0.57494 0.43324,0.0974 1.91526,-0.21721 l 4.14834,-0.88063 0.22943,1.08077 -7.24827,1.5387 -0.22943,-1.08077 0.62128,-0.13189 q -0.43364,-0.13113 -0.70158,-0.40566 -0.27579,-0.27962 -0.36234,-0.68733 -0.10441,-0.49185 0.0534,-0.86352 0.15645,-0.37814 0.57747,-0.65689 z"
           style="font-style:normal;font-variant:normal;font-weight:normal;font-stretch:normal;font-size:medium;line-height:1.25;font-family:monospace;-inkscape-font-specification:monospace;letter-spacing:0px;word-spacing:0px;fill:#000000;fill-opacity:1;stroke:none;stroke-width:0.3387334"
           id="path872"
           inkscape:connector-curvature="0" />
        <path
           d="m 397.72256,230.31891 13.49671,-1.19297 0.10019,1.13351 -13.49671,1.19297 z"
           style="font-style:normal;font-variant:normal;font-weight:normal;font-stretch:normal;font-size:medium;line-height:1.25;font-family:monospace;-inkscape-font-specification:monospace;letter-spacing:0px;word-spacing:0px;fill:#000000;fill-opacity:1;stroke:none;stroke-width:0.3387334"
           id="path874"
           inkscape:connector-curvature="0" />
        <path
           d="m 403.12379,210.66943 4.58921,0.14263 -0.038,1.22335 -4.58921,-0.14263 q -0.99852,-0.031 -1.47891,0.30485 -0.4804,0.33588 -0.50362,1.08311 -0.0265,0.85304 0.56747,1.33484 0.58757,0.47497 1.71835,0.51012 l 4.18583,0.13009 -0.0378,1.21673 -7.40622,-0.23017 0.0378,-1.21674 1.11094,0.0345 q -0.62475,-0.34375 -0.93151,-0.90929 -0.31337,-0.56574 -0.28974,-1.3262 0.0351,-1.13077 0.79964,-1.66302 0.75809,-0.53906 2.26579,-0.4922 z"
           style="font-style:normal;font-variant:normal;font-weight:normal;font-stretch:normal;font-size:medium;line-height:1.25;font-family:monospace;-inkscape-font-specification:monospace;letter-spacing:0px;word-spacing:0px;fill:#000000;fill-opacity:1;stroke:none;stroke-width:0.3387334"
           id="path876"
           inkscape:connector-curvature="0" />
        <path
           d="m 398.95396,195.34141 13.39459,2.04193 -0.17149,1.12493 -13.39459,-2.04192 z"
           style="font-style:normal;font-variant:normal;font-weight:normal;font-stretch:normal;font-size:medium;line-height:1.25;font-family:monospace;-inkscape-font-specification:monospace;letter-spacing:0px;word-spacing:0px;fill:#000000;fill-opacity:1;stroke:none;stroke-width:0.3387334"
           id="path878"
           inkscape:connector-curvature="0" />
        <path
           d="m 406.21791,179.77064 q -0.24959,0.89196 0.31651,1.545 0.56609,0.65305 1.92952,1.03457 1.35706,0.37973 2.18624,0.11712 0.82282,-0.2644 1.07241,-1.15636 0.25138,-0.89834 -0.31472,-1.55138 -0.57247,-0.65483 -1.92952,-1.03457 -1.36343,-0.38152 -2.18625,-0.11712 -0.82281,0.2644 -1.07419,1.16274 z m -0.9939,-0.27812 q 0.41539,-1.48448 1.59672,-1.99893 1.18311,-0.52082 3.00526,-0.0109 1.82852,0.51166 2.57129,1.56451 0.73639,1.05107 0.31921,2.54192 -0.41539,1.48448 -1.59034,2.00071 -1.18133,0.51445 -3.00985,0.003 -1.82215,-0.50987 -2.56491,-1.56273 -0.74277,-1.05285 -0.32738,-2.53733 z"
           style="font-style:normal;font-variant:normal;font-weight:normal;font-stretch:normal;font-size:medium;line-height:1.25;font-family:monospace;-inkscape-font-specification:monospace;letter-spacing:0px;word-spacing:0px;fill:#000000;fill-opacity:1;stroke:none;stroke-width:0.3387334"
           id="path880"
           inkscape:connector-curvature="0" />
        <path
           d="m 408.52962,161.63882 12.50781,5.20953 -0.43752,1.05046 -12.50781,-5.20953 z"
           style="font-style:normal;font-variant:normal;font-weight:normal;font-stretch:normal;font-size:medium;line-height:1.25;font-family:monospace;-inkscape-font-specification:monospace;letter-spacing:0px;word-spacing:0px;fill:#000000;fill-opacity:1;stroke:none;stroke-width:0.3387334"
           id="path882"
           inkscape:connector-curvature="0" />
        <path
           d="m 423.43619,152.44012 3.26272,1.85099 -0.60394,1.06456 -8.89625,-5.04697 0.60394,-1.06456 0.82287,0.46683 q -0.32744,-0.53566 -0.32677,-1.11336 -0.002,-0.58673 0.32463,-1.16217 0.6627,-1.16813 1.94155,-1.31735 1.28213,-0.15498 2.88184,0.75256 1.57094,0.89122 2.08994,2.06799 0.51324,1.17351 -0.1462,2.3359 -0.33298,0.58694 -0.83179,0.88965 -0.50129,0.2937 -1.12254,0.27593 z m -0.64248,-4.47193 q -1.23144,-0.69861 -2.08065,-0.66315 -0.84595,0.0297 -1.28013,0.79504 -0.43745,0.77108 -0.0297,1.52723 0.40197,0.75289 1.62765,1.44824 1.21993,0.69208 2.07816,0.65413 0.85823,-0.038 1.29568,-0.80904 0.43418,-0.76533 0.0257,-1.50671 -0.40524,-0.74713 -1.63667,-1.44574 z"
           style="font-style:normal;font-variant:normal;font-weight:normal;font-stretch:normal;font-size:medium;line-height:1.25;font-family:monospace;-inkscape-font-specification:monospace;letter-spacing:0px;word-spacing:0px;fill:#000000;fill-opacity:1;stroke:none;stroke-width:0.3387334"
           id="path884"
           inkscape:connector-curvature="0" />
        <path
           d="m 425.92823,131.24076 10.89372,8.05676 -0.67664,0.9149 -10.89372,-8.05676 z"
           style="font-style:normal;font-variant:normal;font-weight:normal;font-stretch:normal;font-size:medium;line-height:1.25;font-family:monospace;-inkscape-font-specification:monospace;letter-spacing:0px;word-spacing:0px;fill:#000000;fill-opacity:1;stroke:none;stroke-width:0.3387334"
           id="path886"
           inkscape:connector-curvature="0" />
        <path
           d="m 440.41282,124.20634 q 1.02906,0.97238 1.85765,1.14547 0.83313,0.16829 1.43745,-0.47127 0.60433,-0.63956 0.38916,-1.46183 -0.21543,-0.83162 -1.23969,-1.79945 -1.02425,-0.96784 -1.86192,-1.13131 -0.83794,-0.17283 -1.44227,0.46673 -0.60433,0.63956 -0.38916,1.46182 0.21972,0.81746 1.24878,1.78984 z m 4.445,-0.69685 q 0.19465,0.59353 0.0612,1.16827 -0.13374,0.56539 -0.59267,1.05107 -0.91331,0.96655 -2.19028,0.82487 -1.27724,-0.15102 -2.59002,-1.39149 -1.33682,-1.26318 -1.56471,-2.53437 -0.22788,-1.27119 0.68997,-2.24255 0.45438,-0.48087 1.0113,-0.6464 0.55665,-0.17489 1.16478,-0.0189 l -0.68764,-0.64977 0.84061,-0.88961 7.43426,7.02475 -0.84061,0.88961 z"
           style="font-style:normal;font-variant:normal;font-weight:normal;font-stretch:normal;font-size:medium;line-height:1.25;font-family:monospace;-inkscape-font-specification:monospace;letter-spacing:0px;word-spacing:0px;fill:#000000;fill-opacity:1;stroke:none;stroke-width:0.3387334"
           id="path888"
           inkscape:connector-curvature="0" />
        <path
           d="m 450.07096,105.8884 8.66148,10.41937 -0.87507,0.72742 -8.66148,-10.41937 z"
           style="font-style:normal;font-variant:normal;font-weight:normal;font-stretch:normal;font-size:medium;line-height:1.25;font-family:monospace;-inkscape-font-specification:monospace;letter-spacing:0px;word-spacing:0px;fill:#000000;fill-opacity:1;stroke:none;stroke-width:0.3387334"
           id="path890"
           inkscape:connector-curvature="0" />
        <path
           d="m 469.19189,97.696833 q -0.49299,-0.0441 -0.90742,0.058 -0.41443,0.10206 -0.82025,0.36392 -0.95616,0.61696 -1.07464,1.54376 -0.11848,0.926797 0.61327,2.060847 l 1.99796,3.09641 -1.02843,0.66359 -4.01744,-6.226167 1.02843,-0.66359 0.78555,1.21743 q -0.17113,-0.82653 0.131,-1.51752 0.3041,-0.70013 1.03234,-1.17003 0.37802,-0.24391 0.76698,-0.36104 0.38897,-0.11713 0.81829,-0.1107 z"
           style="font-style:normal;font-variant:normal;font-weight:normal;font-stretch:normal;font-size:medium;line-height:1.25;font-family:monospace;-inkscape-font-specification:monospace;letter-spacing:0px;word-spacing:0px;fill:#000000;fill-opacity:1;stroke:none;stroke-width:0.3387334"
           id="path892"
           inkscape:connector-curvature="0" />
        <path
           d="m 479.57278,87.020043 5.91712,12.18902 -1.02369,0.49694 -5.91712,-12.18902 z"
           style="font-style:normal;font-variant:normal;font-weight:normal;font-stretch:normal;font-size:medium;line-height:1.25;font-family:monospace;-inkscape-font-specification:monospace;letter-spacing:0px;word-spacing:0px;fill:#000000;fill-opacity:1;stroke:none;stroke-width:0.3387334"
           id="path894"
           inkscape:connector-curvature="0" />
        <path
           d="m 498.55856,82.840543 0.38619,1.12649 q -0.5931,-0.11838 -1.14311,-0.0907 -0.55002,0.0277 -1.06946,0.20578 -0.78229,0.2682 -1.08234,0.65781 -0.29593,0.38121 -0.11785,0.90065 0.16091,0.46938 0.52818,0.60224 0.36727,0.13286 1.58764,-0.0407 l 0.49315,-0.0712 q 0.91318,-0.13123 1.51861,0.20673 0.61169,0.33582 0.87989,1.11811 0.35616,1.03888 -0.18064,1.88034 -0.53895,0.8352 -1.8532,1.28576 -0.51944,0.17808 -1.12757,0.26067 -0.60598,0.0889 -1.34445,0.0972 l -0.40766,-1.18908 q 0.75832,0.1107 1.40454,0.078 0.64406,-0.039 1.16976,-0.21919 0.76352,-0.26176 1.07769,-0.71217 0.31203,-0.45667 0.12108,-1.01366 -0.27463,-0.80106 -1.91305,-0.58206 l -0.0544,0.005 -0.46186,0.0604 q -1.06158,0.14713 -1.67507,-0.1531 -0.61562,-0.30649 -0.88811,-1.1013 -0.34543,-1.00759 0.15006,-1.78592 0.49335,-0.7846 1.75753,-1.218 0.56325,-0.1931 1.11917,-0.26479 0.55377,-0.078 1.12524,-0.0431 z"
           style="font-style:normal;font-variant:normal;font-weight:normal;font-stretch:normal;font-size:medium;line-height:1.25;font-family:monospace;-inkscape-font-specification:monospace;letter-spacing:0px;word-spacing:0px;fill:#000000;fill-opacity:1;stroke:none;stroke-width:0.3387334"
           id="path896"
           inkscape:connector-curvature="0" />
        <path
           d="m 512.7614,75.788993 2.80438,13.25594 -1.1133,0.23553 -2.80437,-13.25594 z"
           style="font-style:normal;font-variant:normal;font-weight:normal;font-stretch:normal;font-size:medium;line-height:1.25;font-family:monospace;-inkscape-font-specification:monospace;letter-spacing:0px;word-spacing:0px;fill:#000000;fill-opacity:1;stroke:none;stroke-width:0.3387334"
           id="path898"
           inkscape:connector-curvature="0" />
        <path
           d="m 529.61732,74.160393 0.18379,2.09581 2.75487,-0.24158 0.0826,0.94245 -2.75487,0.24159 0.3514,4.00708 q 0.0717,0.81723 0.40975,1.113 0.33807,0.29578 1.10917,0.22816 l 1.36426,-0.11964 0.0849,0.96882 -1.48288,0.13004 q -1.36425,0.11964 -1.97242,-0.37826 -0.60817,-0.49789 -0.7255,-1.83578 l -0.35139,-4.00708 -1.97059,0.17281 -0.0827,-0.94246 1.97059,-0.17281 -0.18379,-2.0958 z"
           style="font-style:normal;font-variant:normal;font-weight:normal;font-stretch:normal;font-size:medium;line-height:1.25;font-family:monospace;-inkscape-font-specification:monospace;letter-spacing:0px;word-spacing:0px;fill:#000000;fill-opacity:1;stroke:none;stroke-width:0.3387334"
           id="path900"
           inkscape:connector-curvature="0" />
        <path
           d="m 547.64479,72.854353 -0.43016,13.54251 -1.13736,-0.0361 0.43016,-13.54251 z"
           style="font-style:normal;font-variant:normal;font-weight:normal;font-stretch:normal;font-size:medium;line-height:1.25;font-family:monospace;-inkscape-font-specification:monospace;letter-spacing:0px;word-spacing:0px;fill:#000000;fill-opacity:1;stroke:none;stroke-width:0.3387334"
           id="path902"
           inkscape:connector-curvature="0" />
        <path
           d="m 560.6422,81.481903 0.6951,-4.53851 1.20329,0.18429 -0.6951,4.53851 q -0.15123,0.98748 0.12425,1.50488 0.28203,0.5184 1.01447,0.63058 0.85015,0.1302 1.39253,-0.3958 0.54338,-0.53253 0.71465,-1.65081 l 0.634,-4.13959 1.20983,0.18529 -1.11976,7.31131 -1.20983,-0.18529 0.16826,-1.09866 q -0.41759,0.58527 -1.02354,0.82712 -0.59941,0.24285 -1.33839,0.12967 -1.12481,-0.17227 -1.56197,-0.98885 -0.43615,-0.82311 -0.20779,-2.31414 z"
           style="font-style:normal;font-variant:normal;font-weight:normal;font-stretch:normal;font-size:medium;line-height:1.25;font-family:monospace;-inkscape-font-specification:monospace;letter-spacing:0px;word-spacing:0px;fill:#000000;fill-opacity:1;stroke:none;stroke-width:0.3387334"
           id="path904"
           inkscape:connector-curvature="0" />
        <path
           d="m 582.24002,78.300173 -3.66027,13.04557 -1.09563,-0.30741 3.66028,-13.04557 z"
           style="font-style:normal;font-variant:normal;font-weight:normal;font-stretch:normal;font-size:medium;line-height:1.25;font-family:monospace;-inkscape-font-specification:monospace;letter-spacing:0px;word-spacing:0px;fill:#000000;fill-opacity:1;stroke:none;stroke-width:0.3387334"
           id="path906"
           inkscape:connector-curvature="0" />
        <path
           d="m 593.98716,85.310263 1.16616,0.48667 -0.41079,6.56731 4.38551,-4.90858 1.16616,0.48667 -5.28375,5.82412 -1.44702,-0.60387 z"
           style="font-style:normal;font-variant:normal;font-weight:normal;font-stretch:normal;font-size:medium;line-height:1.25;font-family:monospace;-inkscape-font-specification:monospace;letter-spacing:0px;word-spacing:0px;fill:#000000;fill-opacity:1;stroke:none;stroke-width:0.3387334"
           id="path908"
           inkscape:connector-curvature="0" />
        <path
           d="m 614.52019,91.917973 -6.69396,11.780297 -0.98936,-0.56219 6.69396,-11.780297 z"
           style="font-style:normal;font-variant:normal;font-weight:normal;font-stretch:normal;font-size:medium;line-height:1.25;font-family:monospace;-inkscape-font-specification:monospace;letter-spacing:0px;word-spacing:0px;fill:#000000;fill-opacity:1;stroke:none;stroke-width:0.3387334"
           id="path910"
           inkscape:connector-curvature="0" />
        <path
           d="m 623.69801,101.14847 0.9676,0.71665 -2.52685,5.57926 3.12659,-2.44291 0.83469,0.61821 -1.41469,3.71083 4.60028,-4.04358 0.9676,0.71665 -5.80308,4.9228 -0.9357,-0.69303 1.46607,-3.96915 -3.36405,2.56341 -0.9357,-0.69302 z"
           style="font-style:normal;font-variant:normal;font-weight:normal;font-stretch:normal;font-size:medium;line-height:1.25;font-family:monospace;-inkscape-font-specification:monospace;letter-spacing:0px;word-spacing:0px;fill:#000000;fill-opacity:1;stroke:none;stroke-width:0.3387334"
           id="path912"
           inkscape:connector-curvature="0" />
        <path
           d="m 642.5775,112.86508 -9.31253,9.84182 -0.82656,-0.78211 9.31253,-9.84181 z"
           style="font-style:normal;font-variant:normal;font-weight:normal;font-stretch:normal;font-size:medium;line-height:1.25;font-family:monospace;-inkscape-font-specification:monospace;letter-spacing:0px;word-spacing:0px;fill:#000000;fill-opacity:1;stroke:none;stroke-width:0.3387334"
           id="path914"
           inkscape:connector-curvature="0" />
        <path
           d="m 654.01079,129.70519 -4.42303,0.22369 -1.11353,4.70765 -0.90008,-1.08428 0.8996,-3.56703 -3.66745,0.23275 -0.90008,-1.08427 4.83217,-0.22801 1.034,-4.30628 0.86204,1.03847 -0.80661,3.22329 3.30824,-0.20972 z"
           style="font-style:normal;font-variant:normal;font-weight:normal;font-stretch:normal;font-size:medium;line-height:1.25;font-family:monospace;-inkscape-font-specification:monospace;letter-spacing:0px;word-spacing:0px;fill:#000000;fill-opacity:1;stroke:none;stroke-width:0.3387334"
           id="path916"
           inkscape:connector-curvature="0" />
        <path
           d="m 664.83297,139.89212 -11.39008,7.33829 -0.6163,-0.95659 11.39008,-7.33829 z"
           style="font-style:normal;font-variant:normal;font-weight:normal;font-stretch:normal;font-size:medium;line-height:1.25;font-family:monospace;-inkscape-font-specification:monospace;letter-spacing:0px;word-spacing:0px;fill:#000000;fill-opacity:1;stroke:none;stroke-width:0.3387334"
           id="path918"
           inkscape:connector-curvature="0" />
        <path
           d="m 666.64195,159.6273 q -0.82929,0.0637 -2.17128,0.19202 -1.8574,0.17225 -2.3008,0.13716 -0.5971,-0.0488 -1.02837,-0.34712 -0.43126,-0.29829 -0.69669,-0.84603 l -0.42699,-0.88114 0.91687,-0.4443 0.31447,0.64895 q 0.23369,0.48225 0.64623,0.62052 0.41253,0.13827 1.7843,-0.005 l 5.31172,-5.75729 0.56259,1.16097 -4.25759,4.50394 6.15885,-0.58046 0.56259,1.16096 z"
           style="font-style:normal;font-variant:normal;font-weight:normal;font-stretch:normal;font-size:medium;line-height:1.25;font-family:monospace;-inkscape-font-specification:monospace;letter-spacing:0px;word-spacing:0px;fill:#000000;fill-opacity:1;stroke:none;stroke-width:0.3387334"
           id="path920"
           inkscape:connector-curvature="0" />
        <path
           d="m 679.9818,171.47796 -12.82011,4.38512 -0.36828,-1.07669 12.82011,-4.38512 z"
           style="font-style:normal;font-variant:normal;font-weight:normal;font-stretch:normal;font-size:medium;line-height:1.25;font-family:monospace;-inkscape-font-specification:monospace;letter-spacing:0px;word-spacing:0px;fill:#000000;fill-opacity:1;stroke:none;stroke-width:0.3387334"
           id="path922"
           inkscape:connector-curvature="0" />
        <path
           d="m 681.05786,185.94818 1.10959,5.26302 -1.08756,0.22929 -6.08233,-3.06521 0.87757,4.16251 -0.97104,0.20472 -1.14234,-5.41839 1.10051,-0.23201 6.0888,3.06384 -0.84481,-4.00715 z"
           style="font-style:normal;font-variant:normal;font-weight:normal;font-stretch:normal;font-size:medium;line-height:1.25;font-family:monospace;-inkscape-font-specification:monospace;letter-spacing:0px;word-spacing:0px;fill:#000000;fill-opacity:1;stroke:none;stroke-width:0.3387334"
           id="path924"
           inkscape:connector-curvature="0" />
        <path
           d="M 687.07835,205.78266 673.58,206.957 l -0.0986,-1.13365 13.49835,-1.17434 z"
           style="font-style:normal;font-variant:normal;font-weight:normal;font-stretch:normal;font-size:medium;line-height:1.25;font-family:monospace;-inkscape-font-specification:monospace;letter-spacing:0px;word-spacing:0px;fill:#000000;fill-opacity:1;stroke:none;stroke-width:0.3387334"
           id="path926"
           inkscape:connector-curvature="0" />
        <path
           inkscape:connector-curvature="0"
           id="path7180-7"
           d="M 671.80406,217.95319 A 129.40361,129.40361 0 0 1 542.40045,347.3568 129.40361,129.40361 0 0 1 412.99684,217.95319 129.40361,129.40361 0 0 1 542.40045,88.549576 129.40361,129.40361 0 0 1 671.80406,217.95319 Z"
           style="opacity:1;fill:none;fill-opacity:1;fill-rule:evenodd;stroke:#090000;stroke-width:1.46540093;stroke-linecap:round;stroke-linejoin:miter;stroke-miterlimit:4;stroke-dasharray:none;stroke-opacity:1;paint-order:normal" />
        <g
           id="g987">
          <path
             inkscape:connector-curvature="0"
             style="opacity:1;fill:none;fill-opacity:1;fill-rule:evenodd;stroke:#090000;stroke-width:1.6725148;stroke-linecap:round;stroke-linejoin:miter;stroke-miterlimit:4;stroke-dasharray:none;stroke-opacity:1;paint-order:normal"
             d="M 690.09348,217.95319 A 147.69302,147.69302 0 0 1 542.40045,365.64621 147.69302,147.69302 0 0 1 394.70743,217.95319 147.69302,147.69302 0 0 1 542.40045,70.260162 147.69302,147.69302 0 0 1 690.09348,217.95319 Z"
             id="path7180-7-7" />
        </g>
      </g>
    </g>
  </g>
</svg>
